<svg width="49" height="48" viewBox="0 0 49 48" fill="none" xmlns="http://www.w3.org/2000/svg">
<path d="M32.8438 27C39.7812 27 45.5 32.7188 45.5 39.6562V43.5C45.5 46.0312 43.4375 48 41 48H8C5.46875 48 3.5 46.0312 3.5 43.5V39.6562C3.5 32.7188 9.125 27 16.0625 27C18.7812 27 20 28.5 24.5 28.5C28.9062 28.5 30.125 27 32.8438 27ZM42.5 43.5V39.6562C42.5 34.3125 38.1875 30 32.8438 30C31.0625 30 29.1875 31.5 24.5 31.5C19.7188 31.5 17.9375 30 16.0625 30C10.7188 30 6.5 34.3125 6.5 39.6562V43.5C6.5 44.3438 7.15625 45 8 45H41C41.75 45 42.5 44.3438 42.5 43.5ZM24.5 24C17.8438 24 12.5 18.6562 12.5 12C12.5 5.4375 17.8438 0 24.5 0C31.0625 0 36.5 5.4375 36.5 12C36.5 18.6562 31.0625 24 24.5 24ZM24.5 3C19.5312 3 15.5 7.125 15.5 12C15.5 16.9688 19.5312 21 24.5 21C29.375 21 33.5 16.9688 33.5 12C33.5 7.125 29.375 3 24.5 3Z" fill="#7B2CBF"/>
</svg>
