<svg width="49" height="48" viewBox="0 0 49 48" fill="none" xmlns="http://www.w3.org/2000/svg">
<path d="M24.5 24C17.8438 24 12.5 18.6562 12.5 12C12.5 5.4375 17.8438 0 24.5 0C31.0625 0 36.5 5.4375 36.5 12C36.5 18.6562 31.0625 24 24.5 24ZM24.5 3C19.5312 3 15.5 7.125 15.5 12C15.5 16.9688 19.5312 21 24.5 21C29.375 21 33.5 16.9688 33.5 12C33.5 7.125 29.375 3 24.5 3ZM33.0312 28.5938C39.9688 28.6875 45.5 34.2188 45.5 41.1562V43.5C45.5 46.0312 43.4375 48 41 48H8C5.46875 48 3.5 46.0312 3.5 43.5V41.1562C3.5 34.2188 8.9375 28.6875 15.875 28.5938L19.5312 41.4375L22.7188 31.9688L20.375 29.625C19.4375 28.6875 20.0938 27 21.5 27H27.5C28.8125 27 29.4688 28.6875 28.5312 29.625L26.1875 31.9688L29.375 41.4375L33.0312 28.5938ZM8 45H17.4688L13.625 31.875C9.5 32.9062 6.5 36.75 6.5 41.1562V43.5C6.5 44.3438 7.15625 45 8 45ZM21.5 45H27.4062L24.5 36.2812L21.5 45ZM42.5 43.5H42.4062V41.1562C42.4062 36.75 39.4062 32.9062 35.2812 31.875L31.4375 45H41C41.75 45 42.5 44.3438 42.5 43.5Z" fill="#7B2CBF"/>
</svg>
